# xmcd
#
# Track frame offsets:
#	150
#	12497
#	25633
#	37419
#	46581
#	62225
#	73331
#	84623
#	102023
#	115977
#	128353
#	143648
#	157107
#	169871
#	180004
#	192994
#	206214
#	216700
#	229642
#	242057
#	253356
#	265315
#	280509
#	293663
#	306995
#	317768
#	332760
#
# Disc length: 4605 seconds
#
# Revision: 0
# Processed by: cddbd v1.5PL3 Copyright (c) Steve Scherf et al.
# Submitted via: dBpowerAMP V4.0
#
DISCID=9411fb1b
DTITLE=Ernest Tubb - Another Story - Disk 6
DYEAR=1999
DGENRE=Country
TTITLE0=Big Blue Diamond
TTITLE1=I've Got A New Heartache
TTITLE2=Truck Driving Man
TTITLE3=That Certain One
TTITLE4=Missing In Action
TTITLE5=The Texas Troubadour
TTITLE6=Don't She Look Good
TTITLE7=A Daisy A Day
TTITLE8=Miles Of Memories
TTITLE9=Texas Dance Hall Girl
TTITLE10=The Lord Knows I'm Drinking
TTITLE11=I've Got All The Heartaches I Can Handle
TTITLE12=Pass Me By (If You're Only Passing Through)
TTITLE13=What My Woman Can't Do
TTITLE14=The Last Letter
TTITLE15=Anything But This
TTITLE16=Don't Water Down The Bad News
TTITLE17=The Busiest Memory In Town
TTITLE18=I'd Like To Live Again
TTITLE19=If You Don't Quit Checkin' On Me (I'm Checkin' Out On You)
TTITLE20=Somewhere City U.S.A.
TTITLE21=Holding Things Together
TTITLE22=I'm Living In Sunshine
TTITLE23=You're My Best Friend
TTITLE24=She's Already Gone
TTITLE25=It's Time To Pay The Fiddler
TTITLE26=The Door's Always Open
EXTD=
EXTT0=
EXTT1=
EXTT2=
EXTT3=
EXTT4=
EXTT5=
EXTT6=
EXTT7=
EXTT8=
EXTT9=
EXTT10=
EXTT11=
EXTT12=
EXTT13=
EXTT14=
EXTT15=
EXTT16=
EXTT17=
EXTT18=
EXTT19=
EXTT20=
EXTT21=
EXTT22=
EXTT23=
EXTT24=
EXTT25=
EXTT26=
PLAYORDER=
